<svg xmlns="http://www.w3.org/2000/svg" viewBox="0 0 48 48">
  <path d="M10.5 5C7.468 5 5 7.468 5 10.5L5 31.5C5 33.632 6.222 35.479578 8 36.392578L8 10.5C8 9.121 9.121 8 10.5 8L36.392578 8C35.479578 6.222 33.632 5 31.5 5L10.5 5 z M 16.5 11C13.468 11 11 13.467 11 16.5L11 37.5C11 40.533 13.468 43 16.5 43L37.5 43C40.532 43 43 40.533 43 37.5L43 16.5C43 13.467 40.532 11 37.5 11L16.5 11 z M 23.623047 16.005859C24.501297 16.068719 25.310703 16.582578 25.689453 17.392578L26.802734 19.767578C27.234734 20.690578 27.007328 21.774844 26.236328 22.464844L24.394531 24.113281C24.178531 24.307281 24.040812 24.567609 24.007812 24.849609C23.976813 25.112609 23.884922 25.916734 25.169922 28.052734C25.768922 29.048734 26.332703 29.774891 26.845703 30.212891C27.057703 30.392891 27.619625 30.870547 28.265625 30.685547L30.744141 29.958984C31.752141 29.661984 32.842984 30.015937 33.458984 30.835938L35.037109 32.9375C35.755109 33.8945 35.625375 35.225156 34.734375 36.035156L33.640625 37.029297C32.703625 37.881297 31.349422 38.202141 30.107422 37.869141C26.997422 37.035141 24.100094 34.418891 21.496094 30.087891C18.888094 25.751891 17.976156 22.028438 18.785156 19.023438C19.106156 17.831437 20.069875 16.870625 21.296875 16.515625L22.734375 16.099609C23.028625 16.014359 23.330297 15.984906 23.623047 16.005859 z" fill="#FFFFFF" />
</svg>