<svg xmlns="http://www.w3.org/2000/svg" viewBox="0 0 48 48">
  <path d="M29.5 28h-23C4.019 28 2 30.019 2 32.5V34c0 5.607 7.028 10 16 10s16-4.393 16-10v-1.5C34 30.019 31.981 28 29.5 28zM24 8.5c0-.768.141-1.502.387-2.187C22.653 4.87 20.427 4 18 4 12.486 4 8 8.486 8 14s4.486 10 10 10c2.252 0 4.326-.758 6-2.019V8.5zM41.5 4h-11C28.019 4 26 6.019 26 8.5v14c0 .553.305 1.062.792 1.322C27.014 23.941 27.257 24 27.5 24c.291 0 .581-.085.832-.252L33.954 20H41.5c2.481 0 4.5-2.019 4.5-4.5v-7C46 6.019 43.981 4 41.5 4z" fill="#FFFFFF" />
</svg>