<svg xmlns="http://www.w3.org/2000/svg" viewBox="0 0 48 48">
  <path d="M39.5,8c2.485,0,4.5,2.015,4.5,4.5v23.009c0,2.485-2.015,4.5-4.5,4.5h-31c-2.485,0-4.5-2.015-4.5-4.5V12.5 C4,10.015,6.015,8,8.5,8H39.5z M18.5,25h-7c-0.759,0-1.387,0.564-1.486,1.296L10,26.5v0.984l0.016,0.217 c0.325,2.227,2.189,3.302,4.984,3.302c2.662,0,4.479-0.974,4.928-2.989l0.057-0.31L20,27.485V26.5c0-0.759-0.564-1.387-1.296-1.486 L18.5,25z M36.5,25.992h-8.995l-0.204,0.014c-0.732,0.099-1.296,0.727-1.296,1.486c0,0.759,0.564,1.387,1.296,1.486l0.204,0.014 H36.5l0.204-0.014C37.436,28.879,38,28.252,38,27.492c0-0.759-0.564-1.387-1.296-1.486L36.5,25.992z M15,17.004 c-1.657,0-3,1.343-3,3c0,1.657,1.343,3,3,3s3-1.343,3-3C18,18.347,16.657,17.004,15,17.004z M36.5,19h-8.995l-0.204,0.014 c-0.732,0.099-1.296,0.727-1.296,1.486s0.564,1.387,1.296,1.486L27.505,22H36.5l0.204-0.014C37.436,21.887,38,21.259,38,20.5 s-0.564-1.387-1.296-1.486L36.5,19z" fill="#FFFFFF" />
</svg>