<svg xmlns="http://www.w3.org/2000/svg" viewBox="0 0 48 48">
  <path d="M36 5C34.13 5 32.371781 5.7287812 31.050781 7.0507812L24.111328 13.990234L23.121094 13L21.560547 14.560547C21.267547 14.853547 20.884 15 20.5 15C20.116 15 19.732453 14.853547 19.439453 14.560547C18.853453 13.974547 18.853453 13.025453 19.439453 12.439453L21 10.878906L19.121094 9L17.560547 10.560547C17.268547 10.853547 16.884 11 16.5 11C16.116 11 15.732453 10.853547 15.439453 10.560547C14.853453 9.9745469 14.853453 9.0254531 15.439453 8.4394531L17 6.8789062L16.146484 6.0253906C14.824484 4.7033906 12.517266 4.7043906 11.197266 6.0253906L6.0253906 11.195312C5.3633906 11.856312 5 12.735875 5 13.671875C5 14.606875 5.3643906 15.484484 6.0253906 16.146484L13.990234 24.111328L8.9140625 29.185547C8.4960625 29.605547 8.1883906 30.128266 8.0253906 30.697266L5.0566406 41.087891C4.9076406 41.611891 5.0534531 42.175547 5.4394531 42.560547C5.7254531 42.845547 6.107 43 6.5 43C6.638 43 6.7761094 42.980406 6.9121094 42.941406L17.302734 39.974609C17.875734 39.810609 18.398453 39.500031 18.814453 39.082031L23.888672 34.009766L32.025391 42.146484C32.708391 42.829484 33.603 43.169922 34.5 43.169922C35.397 43.169922 36.291609 42.828484 36.974609 42.146484L42.146484 36.974609C43.510484 35.610609 43.510484 33.389391 42.146484 32.025391L41.121094 31L39.560547 32.560547C39.268547 32.853547 38.884 33 38.5 33C38.116 33 37.732453 32.853547 37.439453 32.560547C36.853453 31.974547 36.853453 31.025453 37.439453 30.439453L39 28.878906L37.121094 27L35.560547 28.560547C35.268547 28.853547 34.884 29 34.5 29C34.116 29 33.732453 28.853547 33.439453 28.560547C32.853453 27.974547 32.853453 27.025453 33.439453 26.439453L35 24.878906L34.009766 23.888672L40.949219 16.949219C42.271219 15.628219 43 13.87 43 12C43 10.13 42.270219 8.3717812 40.949219 7.0507812C39.627219 5.7287813 37.87 5 36 5 z M 36 8C37.068 8 38.073125 8.415875 38.828125 9.171875C39.584125 9.927875 40 10.932 40 12C40 13.068 39.584125 14.072125 38.828125 14.828125L36.888672 16.767578L31.232422 11.111328L33.173828 9.171875C33.927828 8.415875 34.932 8 36 8 z M 29.111328 13.232422L34.767578 18.888672L16.691406 36.964844C16.631406 37.024844 16.557562 37.066844 16.476562 37.089844L8.6835938 39.316406L10.910156 31.523438C10.933156 31.439437 10.977109 31.365687 11.037109 31.304688L29.111328 13.232422 z" fill="#FFFFFF" />
</svg>