<svg xmlns="http://www.w3.org/2000/svg" viewBox="0 0 48 48">
  <path d="M11.5 6C8.4802259 6 6 8.4802259 6 11.5L6 36.5C6 39.519774 8.4802259 42 11.5 42L36.5 42C39.519774 42 42 39.519774 42 36.5L42 11.5C42 8.4802259 39.519774 6 36.5 6L11.5 6 z M 11.5 9L36.5 9C37.898226 9 39 10.101774 39 11.5L39 36.5C39 37.898226 37.898226 39 36.5 39L11.5 39C10.101774 39 9 37.898226 9 36.5L9 11.5C9 10.101774 10.101774 9 11.5 9 z M 34.470703 11.986328 A 1.50015 1.50015 0 0 0 34.308594 12L23.5 12 A 1.50015 1.50015 0 1 0 23.5 15L30.878906 15L15.439453 30.439453 A 1.50015 1.50015 0 1 0 17.560547 32.560547L33 17.121094L33 24.5 A 1.50015 1.50015 0 1 0 36 24.5L36 13.689453 A 1.50015 1.50015 0 0 0 34.470703 11.986328 z" fill="#FFFFFF" />
</svg>