<svg xmlns="http://www.w3.org/2000/svg" viewBox="0 0 48 48">
  <path d="M16.5 4C14.032499 4 12 6.0324991 12 8.5L12 39.5C12 41.967501 14.032499 44 16.5 44L31.5 44C33.967501 44 36 41.967501 36 39.5L36 8.5C36 6.0324991 33.967501 4 31.5 4L16.5 4 z M 16.5 7L31.5 7C32.346499 7 33 7.6535009 33 8.5L33 39.5C33 40.346499 32.346499 41 31.5 41L16.5 41C15.653501 41 15 40.346499 15 39.5L15 8.5C15 7.6535009 15.653501 7 16.5 7 z M 19.476562 9.9785156 A 1.50015 1.50015 0 0 0 18 11.5L18 15.5 A 1.50015 1.50015 0 1 0 21 15.5L21 11.5 A 1.50015 1.50015 0 0 0 19.476562 9.9785156 z" fill="#FFFFFF" />
</svg>