<svg xmlns="http://www.w3.org/2000/svg" viewBox="0 0 48 48">
  <path d="M6.78125 1.78125 A 1.50015 1.50015 0 0 0 5.7363281 4.3574219L7.1503906 5.7714844 A 1.50015 1.50015 0 1 0 9.2714844 3.6503906L7.8574219 2.2363281 A 1.50015 1.50015 0 0 0 6.78125 1.78125 z M 36 2C35.156 2 34.337688 2.1076406 33.554688 2.3066406C33.163688 2.4056406 32.883937 2.7513438 32.835938 3.1523438L32.738281 3.9511719C32.682281 4.4201719 32.409 4.8362656 32 5.0722656C31.591 5.3082656 31.094156 5.3383438 30.660156 5.1523438L29.927734 4.8398438C29.556734 4.6818437 29.117937 4.7490625 28.835938 5.0390625C27.697937 6.2090625 26.839859 7.6535781 26.380859 9.2675781C26.270859 9.6565781 26.430906 10.073406 26.753906 10.316406L27.400391 10.800781C27.778391 11.083781 28 11.528 28 12C28 12.472 27.778391 12.916219 27.400391 13.199219L26.755859 13.683594C26.432859 13.925594 26.271813 14.343422 26.382812 14.732422C26.841812 16.346422 27.696938 17.790938 28.835938 18.960938C29.116937 19.249938 29.558688 19.319156 29.929688 19.160156L30.660156 18.847656C31.094156 18.661656 31.592 18.692734 32 18.927734C32.408 19.162734 32.682281 19.579828 32.738281 20.048828L32.835938 20.849609C32.883938 21.250609 33.163688 21.596312 33.554688 21.695312C34.338688 21.893313 35.156 22 36 22C36.844 22 37.662312 21.892359 38.445312 21.693359C38.836312 21.594359 39.116063 21.248656 39.164062 20.847656L39.259766 20.046875C39.315766 19.577875 39.590047 19.163734 39.998047 18.927734C40.406047 18.691734 40.903891 18.661656 41.337891 18.847656L42.070312 19.160156C42.441313 19.319156 42.880109 19.249937 43.162109 18.960938C44.300109 17.790937 45.158187 16.346422 45.617188 14.732422C45.727187 14.343422 45.567141 13.926594 45.244141 13.683594L44.599609 13.199219C44.221609 12.916219 44 12.472 44 12C44 11.528 44.221609 11.083781 44.599609 10.800781L45.244141 10.316406C45.567141 10.074406 45.728187 9.6565781 45.617188 9.2675781C45.158187 7.6535781 44.303062 6.2090625 43.164062 5.0390625C42.883063 4.7500625 42.441313 4.6808438 42.070312 4.8398438L41.339844 5.1523438C40.905844 5.3383437 40.409 5.3082656 40 5.0722656C39.591 4.8362656 39.317719 4.4201719 39.261719 3.9511719L39.164062 3.1503906C39.116062 2.7503906 38.836312 2.4036875 38.445312 2.3046875C37.661312 2.1066875 36.844 2 36 2 z M 24 4.015625C16.28 4.017625 10 10.291 10 18C10 21.883 11.559625 25.494922 14.390625 28.169922C14.712625 28.473922 14.938875 28.889094 15.046875 29.371094L17.513672 40.476562C17.974672 42.551563 19.78025 44 21.90625 44L26.09375 44C28.21875 44 30.025328 42.551563 30.486328 40.476562L32.953125 29.371094C33.060125 28.889094 33.286328 28.475922 33.611328 28.169922C34.905328 26.945922 35.919297 25.52075 36.654297 23.96875C36.436297 23.97975 36.221 24 36 24C35.103 24 34.231625 23.894031 33.390625 23.707031C32.885625 24.531031 32.278687 25.301328 31.554688 25.986328C30.792687 26.704328 30.262391 27.649703 30.025391 28.720703L28.851562 34L19.146484 34L17.974609 28.720703C17.735609 27.649703 17.208219 26.702281 16.449219 25.988281C14.225219 23.885281 13 21.05 13 18C13 11.946 17.934 7.017625 24 7.015625C24.36 7.015625 24.716359 7.0363125 25.068359 7.0703125C25.522359 6.0663125 26.102734 5.1328281 26.802734 4.2988281C25.896734 4.1148281 24.96 4.015625 24 4.015625 z M 36 9C37.657 9 39 10.343 39 12C39 13.657 37.657 15 36 15C34.343 15 33 13.657 33 12C33 10.343 34.343 9 36 9 z M 1.5 15 A 1.50015 1.50015 0 1 0 1.5 18L4.5 18 A 1.50015 1.50015 0 1 0 4.5 15L1.5 15 z M 39.773438 26.773438 A 1.50015 1.50015 0 0 0 38.728516 29.349609L40.142578 30.763672 A 1.50015 1.50015 0 1 0 42.263672 28.642578L40.849609 27.228516 A 1.50015 1.50015 0 0 0 39.773438 26.773438 z M 8.1816406 26.775391 A 1.50015 1.50015 0 0 0 7.1503906 27.228516L5.7363281 28.642578 A 1.50015 1.50015 0 1 0 7.8574219 30.763672L9.2714844 29.349609 A 1.50015 1.50015 0 0 0 8.1816406 26.775391 z M 19.814453 37L28.185547 37L27.558594 39.824219C27.406594 40.505219 26.79175 41 26.09375 41L21.90625 41C21.19725 41 20.594406 40.518172 20.441406 39.826172L19.814453 37 z" fill="#FFFFFF" />
</svg>