<svg xmlns="http://www.w3.org/2000/svg" viewBox="0 0 48 48">
  <path d="M8.5 5C6.02 5 4 7.02 4 9.5L4 30.5C4 32.98 6.02 35 8.5 35L17 35L17 40L13.5 40 A 1.50015 1.50015 0 1 0 13.5 43L18.253906 43 A 1.50015 1.50015 0 0 0 18.740234 43L29.253906 43 A 1.50015 1.50015 0 0 0 29.740234 43L34.5 43 A 1.50015 1.50015 0 1 0 34.5 40L31 40L31 35L39.5 35C41.98 35 44 32.98 44 30.5L44 9.5C44 7.02 41.98 5 39.5 5L8.5 5 z M 24 11.492188C24.2575 11.492188 24.515938 11.595781 24.710938 11.800781C25.730937 12.840781 27.750625 14.579453 30.140625 14.939453C30.630625 15.009453 31 15.419922 31 15.919922L31 20C31 22.16 30.029766 25.439219 24.759766 27.699219C24.279766 27.899219 23.720234 27.899219 23.240234 27.699219C17.970234 25.439219 17 22.16 17 20L17 15.919922C17 15.419922 17.369375 15.009453 17.859375 14.939453C20.249375 14.579453 22.269062 12.840781 23.289062 11.800781C23.484063 11.595781 23.7425 11.492188 24 11.492188 z M 20 35L28 35L28 40L20 40L20 35 z" fill="#FFFFFF" />
</svg>