<svg xmlns="http://www.w3.org/2000/svg" viewBox="0 0 48 48">
  <path d="M12 6.9863281C9.243 6.9863281 7 9.2293281 7 11.986328C7 14.743328 9.243 16.986328 12 16.986328C14.757 16.986328 17 14.743328 17 11.986328C17 9.2293281 14.757 6.9863281 12 6.9863281 z M 36 6.9863281C33.243 6.9863281 31 9.2293281 31 11.986328C31 14.743328 33.243 16.986328 36 16.986328C38.757 16.986328 41 14.743328 41 11.986328C41 9.2293281 38.757 6.9863281 36 6.9863281 z M 24 7.0136719C21.243 7.0136719 19 9.2566719 19 12.013672C19 14.770672 21.243 17.013672 24 17.013672C26.757 17.013672 29 14.770672 29 12.013672C29 9.2566719 26.757 7.0136719 24 7.0136719 z M 12 18.986328C9.243 18.986328 7 21.229328 7 23.986328C7 26.743328 9.243 28.986328 12 28.986328C14.757 28.986328 17 26.743328 17 23.986328C17 21.229328 14.757 18.986328 12 18.986328 z M 36 19C33.243 19 31 21.243 31 24C31 24.722 31.1615 25.403437 31.4375 26.023438C32.3285 26.014437 33.218516 26.335109 33.853516 26.912109C34.344516 26.649109 34.904047 26.5 35.498047 26.5C36.403047 26.5 37.230516 26.846109 37.853516 27.412109C38.344516 27.149109 38.903047 27 39.498047 27C39.648047 27 39.7915 27.026922 39.9375 27.044922C40.5935 26.198922 41 25.151 41 24C41 21.243 38.757 19 36 19 z M 24 19.027344C21.243 19.027344 19 21.270344 19 24.027344C19 26.783344 21.242047 29.027344 23.998047 29.027344L23.998047 23.5C23.998047 21.742 25.305094 20.296781 26.996094 20.050781C26.158094 19.417781 25.128 19.027344 24 19.027344 z M 27.476562 21.978516 A 1.50015 1.50015 0 0 0 25.998047 23.5L25.998047 31L25.998047 31.5L25.998047 35.417969L22.638672 32.525391C22.100672 31.893391 21.155391 31.818375 20.525391 32.359375C19.895391 32.897375 19.820375 33.845609 20.359375 34.474609L26.859375 42.074219C26.871909 42.088954 26.887421 42.099156 26.900391 42.113281C27.73757 43.252555 29.07703 44 30.599609 44L34.998047 44C38.312047 44 40.998047 41.314 40.998047 38L40.998047 31.5L40.998047 31L40.998047 30.5 A 1.50015 1.50015 0 0 0 39.476562 28.978516 A 1.50015 1.50015 0 0 0 37.998047 30.5L37.998047 31L36.998047 31L36.998047 30 A 1.50015 1.50015 0 0 0 35.476562 28.478516 A 1.50015 1.50015 0 0 0 33.998047 30L33.998047 31L32.998047 31L32.998047 29.5 A 1.50015 1.50015 0 0 0 31.476562 27.978516 A 1.50015 1.50015 0 0 0 29.998047 29.5L29.998047 31L28.998047 31L28.998047 23.5 A 1.50015 1.50015 0 0 0 27.476562 21.978516 z M 12 30.986328C9.243 30.986328 7 33.229328 7 35.986328C7 38.743328 9.243 40.986328 12 40.986328C14.757 40.986328 17 38.743328 17 35.986328C17 33.229328 14.757 30.986328 12 30.986328 z" fill="#FFFFFF" />
</svg>