<svg xmlns="http://www.w3.org/2000/svg" viewBox="0 0 48 48">
  <path d="M39.194,18.171c-0.72-1.192-1.615-2.677-1.771-3.145C35.169,8.264,29.797,4.173,23,3.98v12.796c1.744,0.62,3,2.268,3,4.224s-1.256,3.605-3,4.224V26c0,1.654,1.346,3,3,3h2.511c0.456-0.604,1.173-1,1.989-1c1.381,0,2.5,1.119,2.5,2.5c0,1.381-1.119,2.5-2.5,2.5c-0.815,0-1.532-0.396-1.989-1H26c-3.309,0-6-2.691-6-6v-0.776c-1.744-0.62-3-2.268-3-4.224s1.256-3.605,3-4.224V4.121C11.646,5.094,6,10.93,6,19c0,4.877,1.38,7.277,2.715,9.598C10.33,31.407,12,34.312,12,42.5c0,0.829,0.671,1.5,1.5,1.5h16c0.829,0,1.5-0.671,1.5-1.5v-4.039c0-0.276,0.224-0.5,0.5-0.5c3.584,0,6.5-2.916,6.5-6.5v-4.348c4-1.307,4-2.511,4-3.113C42,22.932,41.145,21.404,39.194,18.171z" fill="#FFFFFF" />
</svg>