<svg xmlns="http://www.w3.org/2000/svg" viewBox="0 0 48 48">
  <path d="M4.9765625 1.9785156 A 1.50015 1.50015 0 0 0 3.5 3.5 A 1.50015 1.50015 0 1 0 3.5 6.5 A 1.50015 1.50015 0 1 0 6.5 6.5 A 1.50015 1.50015 0 1 0 6.5 3.5 A 1.50015 1.50015 0 0 0 4.9765625 1.9785156 z M 16.976562 1.9785156 A 1.50015 1.50015 0 0 0 15.5 3.5 A 1.50015 1.50015 0 1 0 15.5 6.5 A 1.50015 1.50015 0 1 0 18.5 6.5 A 1.50015 1.50015 0 1 0 18.5 3.5 A 1.50015 1.50015 0 0 0 16.976562 1.9785156 z M 21.5 3C21.452 3 21.404469 3.0048594 21.355469 3.0058594C21.756469 3.5708594 22 4.253 22 5C22 5.355 21.944703 5.6955781 21.845703 6.0175781C29.710703 6.1945781 36.149625 12.350188 36.890625 20.492188C36.916625 20.785187 37.029891 21.063922 37.212891 21.294922L42 27.285156L38.003906 28.683594C37.402906 28.895594 37 29.461609 37 30.099609L37 36.337891C37 36.983891 36.587609 37.556719 35.974609 37.761719L30.392578 39.621094C28.961578 40.099094 28 41.433406 28 42.941406L28 43.5C28 44.328 28.671 45 29.5 45C30.329 45 31 44.328 31 43.5L31 42.941406C31 42.725406 31.137797 42.535797 31.341797 42.466797L36.923828 40.605469C38.763828 39.992469 40 38.277891 40 36.337891L40 31.164062L42.990234 30.117188C43.908234 29.795188 44.618719 29.044375 44.886719 28.109375C45.155719 27.174375 44.952703 26.164297 44.345703 25.404297L39.832031 19.763672C38.739031 10.175672 30.935 3 21.5 3 z M 10.949219 8.0019531C10.194094 8.0020781 9.4377813 8.2882812 8.8632812 8.8632812C7.7132812 10.012281 7.7132812 11.885156 8.8632812 13.035156L10.724609 14.896484L14.896484 10.724609L13.035156 8.8632812C12.459156 8.2877813 11.704344 8.0018281 10.949219 8.0019531 z M 16.310547 12.138672L12.138672 16.310547L19.966797 24.138672C20.540797 24.711672 21.295781 24.998047 22.050781 24.998047C22.805781 24.998047 23.561719 24.710719 24.136719 24.136719C24.693719 23.578719 25 22.838781 25 22.050781C25 21.262781 24.692719 20.521797 24.136719 19.966797L16.310547 12.138672 z M 4.9765625 13.978516 A 1.50015 1.50015 0 0 0 3.5 15.5 A 1.50015 1.50015 0 1 0 3.5 18.5 A 1.50015 1.50015 0 1 0 6.5 18.5 A 1.50015 1.50015 0 1 0 6.5 15.5 A 1.50015 1.50015 0 0 0 4.9765625 13.978516 z M 3.03125 21.375C3.02425 21.584 3 21.789 3 22C3 27.271 5.1682187 32.350547 8.9492188 35.935547C10.271219 37.189547 11 38.80075 11 40.46875L11 43.5C11 44.328 11.671 45 12.5 45C13.329 45 14 44.328 14 43.5L14 40.46875C14 37.96975 12.938672 35.586766 11.013672 33.759766C7.8266719 30.738766 6 26.452 6 22C6 21.949 6.0078125 21.898656 6.0078125 21.847656C5.6898125 21.944656 5.351 22 5 22C4.265 22 3.59125 21.765 3.03125 21.375 z" fill="#FFFFFF" />
</svg>