<svg xmlns="http://www.w3.org/2000/svg" viewBox="0 0 48 48">
  <path d="M9.5 9C7.57 9 6 10.57 6 12.5L6 31.5C6 33.43 7.57 35 9.5 35L38.5 35C40.43 35 42 33.43 42 31.5L42 12.5C42 10.57 40.43 9 38.5 9L9.5 9 z M 25.535156 14C25.634766 14.002582 25.737016 14.013609 25.837891 14.037109C26.645891 14.224109 27.147891 15.030891 26.962891 15.837891L23.962891 28.837891C23.802891 29.531891 23.185953 30 22.501953 30C22.390953 30 22.275109 29.986937 22.162109 29.960938C21.354109 29.774938 20.851109 28.969109 21.037109 28.162109L24.037109 15.162109C24.200734 14.456859 24.837891 13.981926 25.535156 14 z M 17.384766 17.003906C17.767391 16.974406 18.161562 17.091328 18.476562 17.361328C19.105563 17.900328 19.177672 18.847562 18.638672 19.476562L16.476562 22L18.638672 24.523438C19.177672 25.152438 19.105563 26.099672 18.476562 26.638672C18.192563 26.880672 17.846953 27 17.501953 27C17.078953 27 16.658328 26.822563 16.361328 26.476562L13.361328 22.976562C12.880328 22.414562 12.880328 21.584437 13.361328 21.023438L16.361328 17.523438C16.630828 17.208438 17.002141 17.033406 17.384766 17.003906 z M 30.615234 17.003906C30.997609 17.033531 31.368672 17.208937 31.638672 17.523438L34.638672 21.023438C35.120672 21.584438 35.119672 22.415562 34.638672 22.976562L31.638672 26.476562C31.341672 26.822563 30.921047 27 30.498047 27C30.152047 27 29.807438 26.880672 29.523438 26.638672C28.894437 26.099672 28.822328 25.152437 29.361328 24.523438L31.523438 22L29.361328 19.476562C28.822328 18.847562 28.894437 17.900328 29.523438 17.361328C29.838938 17.091328 30.232859 16.974281 30.615234 17.003906 z M 3.5 36 A 1.50015 1.50015 0 1 0 3.5 39L44.5 39 A 1.50015 1.50015 0 1 0 44.5 36L3.5 36 z" fill="#FFFFFF" />
</svg>